<?xml version="1.0" encoding="utf-8"?>
<!-- Generator: Adobe Illustrator 26.5.0, SVG Export Plug-In . SVG Version: 6.00 Build 0)  -->
<svg version="1.1" id="Layer_1" xmlns="http://www.w3.org/2000/svg" xmlns:xlink="http://www.w3.org/1999/xlink" x="0px" y="0px"
	 viewBox="0 0 250.8 77.6" style="enable-background:new 0 0 250.8 77.6;" xml:space="preserve">
<style type="text/css">
	.st0{fill:#81BF9B;}
</style>
<g>
	<polygon class="st0" points="19.9,42.5 31.1,42.5 25.8,27.9 	"/>
	<path class="st0" d="M38.8,0L38.8,0C17.4,0,0,17.4,0,38.8l0,0c0,21.4,17.4,38.8,38.8,38.8l0,0c21.4,0,38.8-17.4,38.8-38.8l0,0
		C77.6,17.4,60.2,0,38.8,0z M67.4,53.1c0,1.3-0.7,2-2,2H33.7c-1.1,0-1.7-0.6-1.7-1.5c0-0.8,0.4-1.1,0.9-1.5c0.7-0.5,1.3-1.1,0.7-2.8
		l-1.3-3.5H18.5l-1.4,3.5c-0.7,1.6,0.1,2.2,1,2.7c0.6,0.4,1.2,0.7,1.2,1.6c0,0.9-0.7,1.5-1.7,1.5h-5.8c-1,0-1.6-0.6-1.6-1.5
		c0-1,0.5-1.3,1.2-1.8s1.5-1,2.1-2.5L24.9,22c0.4-1.1,1.3-1.6,2.4-1.6H31c1.1,0,1.9,0.6,2.3,1.6l8.2,20.3v-17c0-0.9-0.5-1.3-1-1.7
		c-0.5-0.4-1-0.8-1-1.6c0-1,0.7-1.5,1.6-1.5h11.1c1,0,1.7,0.6,1.7,1.5c0,0.8-0.5,1.2-1,1.6s-1,0.8-1,1.7v24.1c0,1.4,0.9,2.3,2.3,2.3
		h2.9c3.3,0,4.8-2.9,6-5.3c0.8-1.8,1.5-3.2,2.8-3.2c0.9,0,1.5,0.7,1.5,1.7V53.1z"/>
</g>
<g>
	<path d="M87.2,32.2c0-0.7,0.3-0.9,0.8-1.2c0.5-0.3,1-0.7,1.4-1.7l7.3-17.4c0.3-0.7,0.9-1.1,1.7-1.1h2.7c0.8,0,1.3,0.4,1.6,1.1
		l7,17.4c0.4,1,1,1.5,1.5,1.8c0.4,0.3,0.7,0.5,0.7,1.1s-0.4,1-1.1,1h-8.7c-0.7,0-1.1-0.4-1.1-1c0-0.5,0.3-0.8,0.6-1
		c0.5-0.4,0.9-0.7,0.5-2l-0.7-1.9h-8.7l-0.8,1.9c-0.5,1.2,0.1,1.5,0.7,1.9c0.4,0.2,0.8,0.5,0.8,1.1c0,0.6-0.5,1-1.2,1h-3.9
		C87.6,33.2,87.2,32.8,87.2,32.2L87.2,32.2z M100.5,25.1L97.2,16l-3.7,9.1H100.5z"/>
	<path d="M112.7,32.3c0-0.5,0.3-0.8,0.6-1c0.4-0.3,0.6-0.6,0.6-1.1v-17c0-0.6-0.3-0.8-0.6-1.1c-0.3-0.2-0.6-0.5-0.6-1
		c0-0.6,0.4-1,1-1h5.7c0.9,0,1.4,0.5,1.4,1.4v18.7c0,0.6,0.3,0.8,0.6,1.1c0.3,0.2,0.6,0.5,0.6,1c0,0.6-0.4,1-1.1,1h-7.3
		C113.1,33.2,112.7,32.8,112.7,32.3L112.7,32.3z"/>
	<path d="M123.8,29.1c-2.7-4.6-1.2-9.4,3.5-12.1c3.5-2,7-1.9,8.4,0.5c1.6,2.9-1.3,6.1-4.9,8.5c1.5,1.3,3.4,2,5.2,1
		c1-0.6,1.4-1.4,1.8-2.2c0.3-0.6,0.5-1,0.8-1.2c0.4-0.2,0.8-0.2,1.3,0.6c1.4,2.5-0.2,6-3.9,8.1C131.2,34.9,126.4,33.6,123.8,29.1
		L123.8,29.1z M129.5,24.7c1.7-1.3,1.8-2.8,1-4.2c-0.7-1.3-2-2.1-2.8-1.6c-1.1,0.6-0.4,2.4,0.4,3.7C128.4,23.2,128.9,24,129.5,24.7
		L129.5,24.7z"/>
	<path d="M139.6,32.3c0-0.6,0.4-0.8,0.9-1.1c0.4-0.2,0.9-0.5,1.2-1.1l3.6-4.7l-3.6-5.9c-0.3-0.4-0.6-0.7-1-1
		c-0.5-0.3-0.9-0.6-0.9-1.2s0.4-1,1-1h8.2c0.6,0,1,0.4,1,1c0,0.5-0.3,0.8-0.6,1c-0.4,0.3-0.7,0.6-0.4,1.2l1.6,2.6l1.9-2.6
		c0.4-0.5,0.1-0.8-0.4-1.1c-0.4-0.2-0.7-0.5-0.7-1c0-0.6,0.4-1,1-1h3.9c0.6,0,1,0.4,1,1s-0.4,0.8-0.9,1.1c-0.5,0.2-0.9,0.5-1.2,1.1
		l-3.4,4.5l3.7,6.1c0.3,0.4,0.6,0.7,1,0.9c0.5,0.3,0.9,0.6,0.9,1.2c0,0.6-0.4,1-1,1h-8.2c-0.6,0-1.1-0.4-1.1-1c0-0.5,0.3-0.8,0.6-1
		c0.4-0.3,0.7-0.6,0.4-1.2l-1.6-2.7l-2.1,2.7c-0.4,0.5-0.1,0.8,0.4,1.1c0.4,0.2,0.7,0.6,0.7,1.1c0,0.6-0.4,1-1.1,1h-3.9
		C140,33.2,139.6,32.8,139.6,32.3L139.6,32.3z"/>
	<path d="M158.2,29.2c0-4.4,5.5-5.6,9.5-5.7v-2.9c0-2.2-0.9-2.7-1.7-2.7c-1.1,0-1.3,1-1.6,2.1c-0.3,1.4-0.6,2.9-2.9,2.9
		c-1.9,0-2.8-1.1-2.8-2.5c0-2.5,3.1-4.4,7.7-4.4s8.1,1.8,8.1,6.3v7.8c0,0.6,0.3,0.9,0.6,1.1s0.6,0.4,0.6,0.8c0,1-1.4,1.5-3.2,1.5
		c-2.2,0-3.7-0.8-4.5-2.2c-1.3,1.4-3,2.2-5,2.2C160.2,33.6,158.2,31.9,158.2,29.2z M167.2,30.1c0.2,0,0.4,0,0.6-0.1
		c0-0.2-0.1-0.5-0.1-0.7v-3.4c-0.3-0.3-0.7-0.5-1.1-0.5c-0.9,0-1.7,0.8-1.7,2.1C164.9,29,165.9,30.1,167.2,30.1L167.2,30.1z"/>
	<path d="M176.6,32.3c0-0.5,0.3-0.8,0.6-1c0.4-0.3,0.6-0.6,0.6-1.1V19.5c0-0.6-0.3-0.8-0.6-1.1c-0.3-0.2-0.6-0.5-0.6-1
		c0-0.6,0.4-1,1-1h5.7c0.9,0,1.4,0.5,1.4,1.4v0.8c1.4-1.5,3.2-2.5,5.4-2.5c2.9,0,5.1,1.8,5.1,5v9.1c0,0.6,0.3,0.8,0.6,1.1
		c0.3,0.2,0.6,0.5,0.6,1c0,0.6-0.4,1-1,1h-7.3c-0.6,0-1.1-0.4-1.1-1c0-0.5,0.3-0.8,0.6-1c0.4-0.3,0.6-0.6,0.6-1.1v-8.9
		c0-1-0.7-1.7-1.6-1.7c-0.8,0-1.4,0.4-1.9,1.1v9.5c0,0.6,0.3,0.8,0.6,1.1c0.3,0.2,0.6,0.5,0.6,1c0,0.6-0.4,1-1.1,1h-7.3
		C177,33.2,176.6,32.8,176.6,32.3L176.6,32.3z"/>
	<path d="M197.5,25c0-5.4,2.9-8.9,7.4-8.9c1.7,0,2.9,0.5,3.8,1.4v-4.3c0-0.6-0.3-0.8-0.6-1.1c-0.3-0.2-0.6-0.5-0.6-1
		c0-0.6,0.4-1,1-1h5.7c0.9,0,1.4,0.5,1.4,1.4v18.7c0,0.6,0.3,0.9,0.6,1.1s0.6,0.4,0.6,0.8c0,1-1.4,1.5-3.2,1.5
		c-2.2,0-3.8-0.9-4.5-2.3c-1.4,1.7-3.1,2.3-5,2.3C200.1,33.6,197.5,30.2,197.5,25z M207.6,30.3c0.4,0,0.8-0.2,1.1-0.8v-6.9
		c-0.5-2.4-1.3-4.7-2.8-4.7c-1.2,0-1.6,1.8-1.6,3.8C204.3,24.4,205.1,30.2,207.6,30.3L207.6,30.3z"/>
	<path d="M217.8,24.8c0-5.3,3.7-8.8,9.1-8.8c4.1,0,7,1.9,7,4.6c0,3.3-4.2,4.6-8.5,4.9c0.7,1.9,1.9,3.4,4,3.4c1.2,0,1.9-0.5,2.6-1
		c0.6-0.4,0.9-0.6,1.3-0.6c0.5,0,0.8,0.3,0.8,1.1c0,2.8-3.2,5-7.5,5C221.4,33.5,217.8,30,217.8,24.8L217.8,24.8z M224.9,23.9
		c2.2-0.3,2.9-1.6,2.9-3.2c0-1.5-0.6-2.8-1.6-2.8c-1.2,0-1.6,1.8-1.6,3.4C224.7,22,224.7,23,224.9,23.9L224.9,23.9z"/>
	<path d="M235.2,32.3c0-0.5,0.3-0.8,0.6-1c0.4-0.3,0.6-0.6,0.6-1.1V19.5c0-0.6-0.3-0.8-0.6-1.1c-0.3-0.2-0.6-0.5-0.6-1
		c0-0.6,0.4-1,1-1h5.7c0.9,0,1.4,0.5,1.4,1.4v1c0.9-1.7,2.3-2.7,4-2.7s3.5,1.1,3.5,3.5c0,2-1.2,3.5-3.1,3.5c-1.5,0-2.2-0.9-2.6-1.8
		c-0.2-0.5-0.5-1-0.9-1c-0.3,0-0.6,0.3-0.9,0.9v9c0,0.5,0.3,0.8,0.8,1.1c0.4,0.2,0.8,0.5,0.8,1.1s-0.4,1-1.1,1h-7.7
		C235.6,33.2,235.2,32.8,235.2,32.3L235.2,32.3z"/>
	<path d="M87.9,66.2c0-0.6,0.3-0.8,0.7-1.1s0.7-0.5,0.7-1.2V48c0-0.6-0.3-0.9-0.7-1.2c-0.3-0.3-0.7-0.5-0.7-1.1s0.5-1,1.1-1h7.8
		c0.7,0,1.2,0.4,1.2,1s-0.3,0.8-0.7,1.1s-0.7,0.5-0.7,1.2v15.2c0,1,0.6,1.6,1.6,1.6h1c2.3,0,3.4-2,4.2-3.7c0.6-1.2,1.1-2.2,1.9-2.2
		c0.6,0,1,0.5,1,1.1v5.7c0,0.9-0.5,1.3-1.3,1.3H89C88.4,67.2,87.9,66.8,87.9,66.2L87.9,66.2z"/>
	<path d="M107.8,63.2c0-4.4,5.5-5.6,9.5-5.7v-2.9c0-2.2-0.9-2.7-1.7-2.7c-1.1,0-1.3,1-1.6,2.1c-0.3,1.4-0.6,2.9-2.9,2.9
		c-1.9,0-2.8-1.1-2.8-2.5c0-2.5,3.1-4.4,7.7-4.4s8.2,1.8,8.2,6.3v7.8c0,0.6,0.3,0.9,0.6,1.1c0.3,0.2,0.6,0.4,0.6,0.8
		c0,1-1.4,1.5-3.2,1.5c-2.2,0-3.7-0.8-4.5-2.2c-1.3,1.4-3,2.2-5,2.2C109.9,67.6,107.8,65.9,107.8,63.2z M116.8,64.1
		c0.2,0,0.4,0,0.6-0.1c0-0.2-0.1-0.5-0.1-0.7v-3.4c-0.3-0.3-0.7-0.5-1.1-0.5c-0.9,0-1.7,0.8-1.7,2.1C114.5,63,115.5,64.1,116.8,64.1
		L116.8,64.1z"/>
	<path d="M126.2,66.3c0-0.5,0.3-0.8,0.6-1c0.4-0.3,0.6-0.6,0.6-1.1V53.5c0-0.6-0.3-0.8-0.6-1.1c-0.3-0.2-0.6-0.5-0.6-1
		c0-0.6,0.4-1,1-1h5.7c0.9,0,1.4,0.5,1.4,1.3v0.8c1.4-1.5,3.2-2.5,5.4-2.5c2.9,0,5.1,1.8,5.1,5v9.1c0,0.6,0.3,0.8,0.6,1.1
		c0.3,0.2,0.6,0.5,0.6,1c0,0.6-0.4,1-1,1h-7.3c-0.6,0-1.1-0.4-1.1-1c0-0.5,0.3-0.8,0.6-1c0.4-0.3,0.6-0.6,0.6-1.1v-8.9
		c0-1-0.7-1.7-1.6-1.7c-0.8,0-1.4,0.4-1.9,1.1v9.5c0,0.6,0.3,0.8,0.6,1.1c0.3,0.2,0.6,0.5,0.6,1c0,0.6-0.4,1-1.1,1h-7.3
		C126.6,67.2,126.2,66.8,126.2,66.3L126.2,66.3z"/>
	<path d="M146.9,66.3c0-0.5,0.3-0.8,0.6-1c0.4-0.3,0.6-0.6,0.6-1.1V53.5c0-0.6-0.3-0.8-0.6-1.1c-0.3-0.2-0.6-0.5-0.6-1
		c0-0.6,0.4-1,1-1h5.7c0.9,0,1.4,0.5,1.4,1.3v0.8c1.4-1.5,3.2-2.5,5.4-2.5c2.9,0,5.1,1.8,5.1,5v9.1c0,0.6,0.3,0.8,0.6,1.1
		c0.3,0.2,0.6,0.5,0.6,1c0,0.6-0.4,1-1,1h-7.3c-0.6,0-1.1-0.4-1.1-1c0-0.5,0.3-0.8,0.6-1c0.4-0.3,0.6-0.6,0.6-1.1v-8.9
		c0-1-0.7-1.7-1.6-1.7c-0.8,0-1.4,0.4-1.9,1.1v9.5c0,0.6,0.3,0.8,0.6,1.1c0.3,0.2,0.6,0.5,0.6,1c0,0.6-0.4,1-1.1,1h-7.3
		C147.3,67.2,146.9,66.8,146.9,66.3L146.9,66.3z"/>
	<path d="M167.7,58.8c0-5.3,3.7-8.8,9.2-8.8s9.2,3.5,9.2,8.8s-3.7,8.7-9.2,8.7S167.7,64.1,167.7,58.8z M179.3,61.9
		c0-3.1-0.8-10-3.2-10c-1.2,0-1.6,1.8-1.6,3.9c0,3.2,0.8,10,3.2,10C178.7,65.7,179.3,64.6,179.3,61.9z"/>
	<path d="M185.5,70.2c0-1.5,1-2.5,2.8-2.5c1.5,0,2.4,0.8,3.1,1.7c0.3,0.5,0.7,1,1.2,1c0.6,0,1.2-0.8,1.7-1.8l-6.9-15
		c-0.2-0.4-0.5-0.7-1-1c-0.4-0.2-0.9-0.6-0.9-1.2c0-0.5,0.4-0.9,1.1-0.9h8.5c0.6,0,1.1,0.4,1.1,0.9s-0.4,0.8-0.7,1
		c-0.5,0.3-0.8,0.6-0.6,1.1l2.8,6.9l2.7-6.9c0.2-0.5-0.2-0.8-0.7-1.1c-0.4-0.2-0.9-0.5-0.9-1.1s0.4-0.9,1-0.9h3.9c0.6,0,1,0.4,1,0.9
		c0,0.6-0.4,0.9-0.9,1.2s-0.8,0.5-1,1l-6.3,15.1c-0.9,2.2-2.1,4.9-6.1,4.9C187.8,73.5,185.6,72.4,185.5,70.2L185.5,70.2z"/>
</g>
</svg>
