<?xml version="1.0" encoding="UTF-8"?><svg id="Layer_1" xmlns="http://www.w3.org/2000/svg" viewBox="0 0 250.84 77.62"><defs><style>.cls-1{fill:#fff;}.cls-2{fill:#81bf9b;}</style></defs><rect class="cls-1" x="0" y="0" width="77.62" height="77.62" rx="38.81" ry="38.81"/><g><g><polygon class="cls-2" points="19.87 42.5 31.09 42.5 25.79 27.92 19.87 42.5"/><path class="cls-2" d="M38.81,0h0C17.38,0,0,17.38,0,38.81H0C0,60.24,17.38,77.62,38.81,77.62h0c21.43,0,38.81-17.38,38.81-38.81h0C77.62,17.38,60.24,0,38.81,0Zm28.57,53.11c0,1.28-.71,2.04-2.04,2.04h-31.6c-1.07,0-1.68-.61-1.68-1.53,0-.76,.41-1.12,.87-1.48,.66-.51,1.27-1.07,.66-2.8l-1.27-3.47h-13.82l-1.38,3.47c-.66,1.63,.1,2.24,1.02,2.7,.61,.36,1.22,.71,1.22,1.58,0,.92-.66,1.53-1.68,1.53h-5.81c-.97,0-1.63-.61-1.63-1.53,0-.97,.46-1.33,1.17-1.78s1.53-1.02,2.14-2.45l11.37-27.28c.41-1.07,1.27-1.63,2.35-1.63h3.77c1.07,0,1.89,.61,2.29,1.63l8.19,20.29V25.37c0-.92-.51-1.33-1.02-1.73-.51-.41-1.02-.82-1.02-1.63,0-.97,.66-1.53,1.63-1.53h11.12c1.02,0,1.73,.56,1.73,1.53,0,.82-.51,1.22-1.02,1.63s-1.02,.82-1.02,1.73v24.07c0,1.38,.92,2.29,2.35,2.29h2.91c3.31,0,4.84-2.91,5.97-5.3,.82-1.79,1.53-3.21,2.75-3.21,.92,0,1.48,.71,1.48,1.68v8.21Z"/></g><g><path d="M87.19,32.2c0-.66,.3-.89,.79-1.22,.46-.3,1.02-.69,1.45-1.68l7.26-17.39c.3-.73,.89-1.12,1.65-1.12h2.71c.76,0,1.32,.43,1.58,1.12l7.03,17.39c.43,1.02,1.02,1.45,1.52,1.78,.43,.3,.73,.53,.73,1.12s-.43,1.02-1.12,1.02h-8.71c-.69,0-1.12-.43-1.12-1.02,0-.53,.26-.76,.56-.99,.46-.36,.89-.73,.46-1.95l-.66-1.85h-8.68l-.76,1.85c-.46,1.16,.07,1.55,.69,1.88,.43,.23,.83,.46,.83,1.06s-.46,1.02-1.16,1.02h-3.93c-.66,0-1.12-.43-1.12-1.02Zm13.3-7.1l-3.27-9.08-3.66,9.08h6.93Z"/><path d="M112.7,32.27c0-.53,.3-.76,.59-.99,.36-.3,.63-.56,.63-1.12V13.19c0-.56-.3-.83-.63-1.09-.3-.23-.59-.46-.59-.99,0-.56,.43-.99,1.02-.99h5.74c.86,0,1.39,.5,1.39,1.35V30.15c0,.56,.26,.83,.63,1.12,.3,.23,.59,.46,.59,.99,0,.56-.43,.96-1.06,.96h-7.29c-.63,0-1.02-.4-1.02-.96Z"/><path d="M123.06,24.81c0-5.31,3.66-8.75,9.08-8.75,4.06,0,7,1.88,7,4.59,0,3.3-4.16,4.62-8.51,4.88,.66,1.85,1.91,3.43,4.03,3.43,1.19,0,1.95-.53,2.61-.99,.56-.4,.92-.59,1.32-.59,.46,0,.83,.26,.83,1.12,0,2.84-3.2,5.05-7.46,5.05-5.35,0-8.88-3.5-8.88-8.75Zm7.13-.92c2.18-.3,2.94-1.58,2.94-3.17,0-1.49-.63-2.84-1.65-2.84-1.22,0-1.55,1.82-1.55,3.43,0,.73,.07,1.65,.26,2.57Z"/><path d="M139.59,32.27c0-.59,.36-.83,.89-1.09,.43-.23,.86-.53,1.25-1.06l3.6-4.72-3.63-5.91c-.26-.43-.59-.69-1.02-.96-.53-.33-.92-.59-.92-1.19,0-.56,.4-.96,1.02-.96h8.25c.63,0,1.02,.4,1.02,.96,0,.46-.3,.76-.56,.99-.4,.33-.69,.59-.36,1.16l1.58,2.57,1.88-2.57c.4-.53,.07-.79-.43-1.12-.36-.23-.69-.53-.69-1.02,0-.56,.4-.96,1.02-.96h3.93c.63,0,1.02,.4,1.02,.96,0,.59-.36,.83-.86,1.09-.46,.23-.86,.53-1.25,1.06l-3.43,4.55,3.73,6.07c.26,.43,.63,.69,1.02,.92,.53,.33,.92,.63,.92,1.22,0,.56-.4,.96-1.02,.96h-8.25c-.63,0-1.06-.4-1.06-.96,0-.46,.33-.76,.59-.99,.4-.33,.69-.59,.36-1.16l-1.65-2.71-2.08,2.71c-.4,.5-.13,.79,.4,1.09,.43,.23,.73,.56,.73,1.06,0,.56-.43,.96-1.06,.96h-3.93c-.59,0-1.02-.4-1.02-.96Z"/><path d="M158.2,29.2c0-4.42,5.48-5.61,9.47-5.71v-2.9c0-2.18-.86-2.71-1.68-2.71-1.12,0-1.32,.96-1.55,2.11-.26,1.39-.56,2.94-2.87,2.94-1.91,0-2.8-1.12-2.8-2.51,0-2.54,3.07-4.36,7.69-4.36s8.15,1.75,8.15,6.27v7.82c0,.56,.33,.86,.63,1.09,.33,.23,.56,.43,.56,.83,0,.96-1.42,1.49-3.17,1.49-2.18,0-3.7-.83-4.46-2.18-1.29,1.39-3,2.18-5.02,2.18-2.9,0-4.95-1.65-4.95-4.36Zm8.98,.89c.23,0,.4-.03,.56-.1-.03-.23-.07-.46-.07-.73v-3.43c-.3-.3-.66-.46-1.09-.46-.89,0-1.72,.76-1.72,2.11,0,1.55,1.06,2.61,2.31,2.61Z"/><path d="M176.62,32.27c0-.53,.3-.76,.59-.99,.36-.3,.63-.56,.63-1.12v-10.69c0-.56-.3-.82-.63-1.09-.3-.23-.59-.46-.59-.99,0-.56,.43-.99,1.02-.99h5.74c.86,0,1.39,.5,1.39,1.35v.82c1.35-1.55,3.23-2.51,5.35-2.51,2.9,0,5.08,1.75,5.08,4.98v9.11c0,.56,.26,.83,.63,1.12,.3,.23,.59,.46,.59,.99,0,.56-.4,.96-1.02,.96h-7.29c-.63,0-1.06-.4-1.06-.96,0-.53,.3-.76,.59-.99,.36-.3,.63-.56,.63-1.12v-8.94c0-1.02-.69-1.72-1.65-1.72-.76,0-1.39,.43-1.85,1.12v9.54c0,.56,.26,.83,.63,1.12,.3,.23,.59,.46,.59,.99,0,.56-.43,.96-1.06,.96h-7.29c-.63,0-1.02-.4-1.02-.96Z"/><path d="M197.48,25.01c0-5.41,2.9-8.94,7.36-8.94,1.68,0,2.91,.46,3.83,1.39v-4.26c0-.56-.3-.83-.63-1.09-.3-.23-.59-.46-.59-.99,0-.56,.43-.99,1.02-.99h5.74c.86,0,1.39,.5,1.39,1.35V30.15c0,.56,.3,.86,.63,1.09,.33,.23,.56,.43,.56,.83,0,.96-1.42,1.49-3.17,1.49-2.24,0-3.83-.89-4.52-2.34-1.35,1.65-3.13,2.34-5.02,2.34-3.99,0-6.6-3.4-6.6-8.55Zm10.13,5.25c.43,0,.79-.23,1.06-.76v-6.93c-.5-2.38-1.32-4.69-2.77-4.69-1.22,0-1.55,1.78-1.55,3.76,0,2.74,.76,8.61,3.27,8.61Z"/><path d="M217.8,24.81c0-5.31,3.66-8.75,9.08-8.75,4.06,0,7,1.88,7,4.59,0,3.3-4.16,4.62-8.51,4.88,.66,1.85,1.91,3.43,4.03,3.43,1.19,0,1.95-.53,2.61-.99,.56-.4,.92-.59,1.32-.59,.46,0,.83,.26,.83,1.12,0,2.84-3.2,5.05-7.46,5.05-5.35,0-8.88-3.5-8.88-8.75Zm7.13-.92c2.18-.3,2.94-1.58,2.94-3.17,0-1.49-.63-2.84-1.65-2.84-1.22,0-1.55,1.82-1.55,3.43,0,.73,.07,1.65,.26,2.57Z"/><path d="M235.19,32.27c0-.53,.3-.76,.59-.99,.36-.3,.63-.56,.63-1.12v-10.69c0-.56-.3-.82-.63-1.09-.3-.23-.59-.46-.59-.99,0-.56,.43-.99,1.02-.99h5.74c.86,0,1.39,.5,1.39,1.35v1.02c.89-1.68,2.28-2.71,3.99-2.71s3.5,1.09,3.5,3.47c0,1.98-1.19,3.47-3.13,3.47-1.49,0-2.21-.86-2.64-1.82-.23-.53-.5-.96-.86-.96-.3,0-.63,.3-.86,.89v9.04c0,.53,.33,.79,.79,1.06,.36,.2,.79,.46,.79,1.06,0,.56-.43,.96-1.06,.96h-7.66c-.63,0-1.02-.4-1.02-.96Z"/><path d="M87.91,66.2c0-.56,.33-.83,.66-1.09s.66-.53,.66-1.16v-15.91c0-.63-.33-.89-.66-1.16-.33-.26-.66-.53-.66-1.09,0-.63,.46-1.02,1.12-1.02h7.82c.69,0,1.16,.4,1.16,1.02,0,.56-.33,.83-.66,1.09-.33,.26-.66,.53-.66,1.16v15.25c0,.96,.63,1.58,1.62,1.58h1.02c2.31,0,3.4-2.01,4.16-3.66,.56-1.22,1.06-2.18,1.88-2.18,.63,0,1.02,.46,1.02,1.12v5.71c0,.86-.5,1.35-1.35,1.35h-16.01c-.66,0-1.12-.4-1.12-1.02Z"/><path d="M107.81,63.2c0-4.42,5.48-5.61,9.47-5.71v-2.9c0-2.18-.86-2.71-1.68-2.71-1.12,0-1.32,.96-1.55,2.11-.26,1.39-.56,2.94-2.87,2.94-1.91,0-2.8-1.12-2.8-2.51,0-2.54,3.07-4.36,7.69-4.36s8.15,1.75,8.15,6.27v7.82c0,.56,.33,.86,.63,1.09,.33,.23,.56,.43,.56,.83,0,.96-1.42,1.49-3.17,1.49-2.18,0-3.7-.83-4.46-2.18-1.29,1.39-3,2.18-5.02,2.18-2.9,0-4.95-1.65-4.95-4.36Zm8.98,.89c.23,0,.4-.03,.56-.1-.03-.23-.07-.46-.07-.73v-3.43c-.3-.3-.66-.46-1.09-.46-.89,0-1.72,.76-1.72,2.11,0,1.55,1.06,2.61,2.31,2.61Z"/><path d="M126.23,66.27c0-.53,.3-.76,.59-.99,.36-.3,.63-.56,.63-1.12v-10.69c0-.56-.3-.83-.63-1.09-.3-.23-.59-.46-.59-.99,0-.56,.43-.99,1.02-.99h5.74c.86,0,1.39,.5,1.39,1.35v.83c1.35-1.55,3.23-2.51,5.35-2.51,2.9,0,5.08,1.75,5.08,4.98v9.11c0,.56,.26,.83,.63,1.12,.3,.23,.59,.46,.59,.99,0,.56-.4,.96-1.02,.96h-7.29c-.63,0-1.06-.4-1.06-.96,0-.53,.3-.76,.59-.99,.36-.3,.63-.56,.63-1.12v-8.94c0-1.02-.69-1.72-1.65-1.72-.76,0-1.39,.43-1.85,1.12v9.54c0,.56,.26,.83,.63,1.12,.3,.23,.59,.46,.59,.99,0,.56-.43,.96-1.06,.96h-7.29c-.63,0-1.02-.4-1.02-.96Z"/><path d="M146.92,66.27c0-.53,.3-.76,.59-.99,.36-.3,.63-.56,.63-1.12v-10.69c0-.56-.3-.83-.63-1.09-.3-.23-.59-.46-.59-.99,0-.56,.43-.99,1.02-.99h5.74c.86,0,1.39,.5,1.39,1.35v.83c1.35-1.55,3.23-2.51,5.35-2.51,2.9,0,5.08,1.75,5.08,4.98v9.11c0,.56,.26,.83,.63,1.12,.3,.23,.59,.46,.59,.99,0,.56-.4,.96-1.02,.96h-7.29c-.63,0-1.06-.4-1.06-.96,0-.53,.3-.76,.59-.99,.36-.3,.63-.56,.63-1.12v-8.94c0-1.02-.69-1.72-1.65-1.72-.76,0-1.39,.43-1.85,1.12v9.54c0,.56,.26,.83,.63,1.12,.3,.23,.59,.46,.59,.99,0,.56-.43,.96-1.06,.96h-7.29c-.63,0-1.02-.4-1.02-.96Z"/><path d="M167.71,58.81c0-5.28,3.66-8.75,9.24-8.75s9.21,3.46,9.21,8.75-3.66,8.75-9.21,8.75-9.24-3.47-9.24-8.75Zm11.62,3.04c0-3.14-.83-9.97-3.17-9.97-1.25,0-1.58,1.78-1.58,3.89,0,3.24,.76,9.97,3.17,9.97,.96,0,1.58-1.16,1.58-3.89Z"/><path d="M185.53,70.19c0-1.49,1.02-2.54,2.84-2.54,1.49,0,2.41,.79,3.1,1.72,.33,.46,.66,.96,1.19,.96,.63,0,1.25-.83,1.72-1.85l-6.93-15.02c-.2-.4-.5-.69-1.02-.99-.43-.23-.92-.56-.92-1.16,0-.53,.43-.92,1.06-.92h8.52c.63,0,1.06,.4,1.06,.92s-.4,.83-.73,1.02c-.53,.33-.79,.59-.56,1.12l2.84,6.9,2.74-6.9c.2-.53-.2-.79-.73-1.09-.43-.23-.89-.53-.89-1.06s.43-.92,1.02-.92h3.86c.63,0,1.02,.4,1.02,.92,0,.59-.4,.89-.92,1.16-.5,.26-.83,.53-1.02,.99l-6.3,15.08c-.92,2.18-2.11,4.95-6.14,4.95-2.54,0-4.79-1.12-4.79-3.3Z"/></g></g></svg>